inDegrees=no
num_controls=7
num_derivatives=13
num_iterations=56
num_multipliers=7
num_parameters=0
num_slacks=7
num_states=26
objective=0.471190
objective_accelerations=0.057378
objective_balance=0.000688
objective_effort=0.015360
objective_height=0.388859
objective_ligament=0.008904
solver_duration=755.983780
status=Solve_Succeeded
success=true
DataType=double
version=3
OpenSimVersion=4.5
endheader
time	/jointset/ground_pelvis/pelvis_tilt/value	/jointset/ground_pelvis/pelvis_tx/value	/jointset/ground_pelvis/pelvis_ty/value	/jointset/hip_l/hip_flexion_l/value	/jointset/hip_l/hip_adduction_l/value	/jointset/hip_l/hip_rotation_l/value	/jointset/back/lumbar_extension/value	/jointset/patellofemoral_l/patellar_flexion_l/value	/jointset/knee_l/knee_flexion_l/value	/jointset/knee_l/knee_adduction_l/value	/jointset/knee_l/knee_rotation_l/value	/jointset/ankle_l/ankle_angle_l/value	/jointset/subtalar_l/subtalar_angle_l/value	/jointset/ground_pelvis/pelvis_tilt/speed	/jointset/ground_pelvis/pelvis_tx/speed	/jointset/ground_pelvis/pelvis_ty/speed	/jointset/hip_l/hip_flexion_l/speed	/jointset/hip_l/hip_adduction_l/speed	/jointset/hip_l/hip_rotation_l/speed	/jointset/back/lumbar_extension/speed	/jointset/patellofemoral_l/patellar_flexion_l/speed	/jointset/knee_l/knee_flexion_l/speed	/jointset/knee_l/knee_adduction_l/speed	/jointset/knee_l/knee_rotation_l/speed	/jointset/ankle_l/ankle_angle_l/speed	/jointset/subtalar_l/subtalar_angle_l/speed	/forceset/tau_hip_flexion_l	/forceset/tau_hip_adduction_l	/forceset/tau_hip_rotation_l	/forceset/tau_knee_flexion_l	/forceset/tau_ankle_angle_l	/forceset/tau_subtalar_angle_l	/forceset/tau_lumbar_extension	lambda_cid13_p0	lambda_cid13_p1	lambda_cid13_p2	lambda_cid13_p3	lambda_cid13_p4	lambda_cid13_p5	lambda_cid14_p0	/jointset/ground_pelvis/pelvis_tilt/accel	/jointset/ground_pelvis/pelvis_tx/accel	/jointset/ground_pelvis/pelvis_ty/accel	/jointset/hip_l/hip_flexion_l/accel	/jointset/hip_l/hip_adduction_l/accel	/jointset/hip_l/hip_rotation_l/accel	/jointset/back/lumbar_extension/accel	/jointset/patellofemoral_l/patellar_flexion_l/accel	/jointset/knee_l/knee_flexion_l/accel	/jointset/knee_l/knee_adduction_l/accel	/jointset/knee_l/knee_rotation_l/accel	/jointset/ankle_l/ankle_angle_l/accel	/jointset/subtalar_l/subtalar_angle_l/accel	gamma_cid13_p0	gamma_cid13_p1	gamma_cid13_p2	gamma_cid13_p3	gamma_cid13_p4	gamma_cid13_p5	gamma_cid14_p0
0	0.05516841847720607	0.1043845469690367	0.9049880812477082	0.1266922784136757	-0.3517139734179637	-0.2349121809814473	-0.2144969558742783	0.2051545070141821	0.2051545070141877	-0.1368293233659261	-0.1609994129524405	0.09024313228550125	0.09906672668000463	0	0	0	0	0	0	0	0	0	0	0	0	0	0.1089240901075111	-0.02856396650638453	-0.007365468164113741	-0.2379014008378573	0.1804758645220778	-0.08980793270058007	-0.0429134025808885	26.43375789521815	36.16187804907159	-8.08698941203234	-17.21213808950604	-439.6454554839202	-36.05428921749927	-25.99552641513125	-2.797091374001861	-0.9726293256430537	-0.7969761268527821	10.17966857375215	-0.3115862926055343	2.830434552308649	-3.465358927528174	9.854485091664552	9.854485091664555	1.909112473887067	-0.8072447714952417	3.293320708303193	0.6700248960975096	-2.096908139767791e-09	3.137751263622825e-07	-7.775223908763837e-08	2.422033753241922e-08	4.151185787634205e-08	1.569703852119302e-07	3.674024780612926e-08
0.01	0.05503484668679386	0.1043364645713383	0.9049494181496635	0.1271871918665739	-0.3517281254695008	-0.2347661756131563	-0.214673794796256	0.2056351447085772	0.2056351447085555	-0.1367345897143176	-0.1610306457814812	0.09040387802572437	0.09910048469688684	-0.02668132006944312	-0.009586337466158348	-0.007709964730552053	0.0986239066968575	-0.002794631199623594	0.02914413514129197	-0.03510495263786736	0.09562970843598419	0.09562970843598415	0.01887412708219926	-0.006107446076941805	0.03195242400846778	0.006729952950554475	0.1067879699817259	-0.03782440231627952	-0.006891006475986593	-0.2352274926132907	0.1735238946489782	-0.0796901492604678	-0.04116080021672589	24.7960627035194	31.81147577483601	-7.115854081363196	-16.36276783701427	-440.481843300664	-44.97186293758574	-25.99589800068714	-2.598698967957187	-0.9471098009833244	-0.75460011206948	9.649931933719269	-0.2580687997106111	2.947884333870516	-3.493638668852764	9.342531805392639	9.342531805392765	1.865716105380828	-0.4916467485450403	3.116702463759731	0.6711929863894901	-1.669827403900433e-08	5.214849095718293e-07	-1.020235216410869e-07	5.951508163496209e-08	-1.113374094839237e-07	2.136504470864321e-07	6.627233155420907e-08
0.02	0.05463545236678432	0.1041934240302036	0.904834336711131	0.1286575804296649	-0.3517691572862584	-0.2343304326256917	-0.2151937982920009	0.2070571431044709	0.2070571431044718	-0.136453284135912	-0.1611187835158762	0.09087824784935949	0.09920088474164582	-0.05316450592059233	-0.01899162868724548	-0.01528366809753417	0.1950950220364046	-0.005375953042044167	0.05794752383583374	-0.06863291475325953	0.1882721403050654	0.1882721403050655	0.03731438536418802	-0.01138098106392521	0.0627248166825896	0.01332840557531556	0.1046518498560263	-0.04708483812615209	-0.00641654478764046	-0.2325535843886759	0.1665719247758999	-0.06957236582032764	-0.03940819785254659	23.20279456377529	27.46577161498321	-6.159720729073004	-15.56157699492933	-440.5231082814252	-53.70785075225499	-25.99662729883747	-2.757464530343452	-0.9364200766284451	-0.7697238541388093	9.749110302289996	-0.2689244211649233	2.762285262958612	-3.149960823033351	9.257029778283933	9.257029778283982	1.822338713845027	-0.640462553503497	3.057314441434444	0.643724830938984	-3.129963993824088e-08	7.291946927813761e-07	-1.262948041945355e-07	9.480982573750496e-08	-2.641866768441895e-07	2.70330508960934e-07	9.580441530228889e-08
0.03	0.0539730472915583	0.1039571497415499	0.9046439715391882	0.1310817010135668	-0.3518351514273678	-0.2336100344247567	-0.2160413137147033	0.2093918855205122	0.2093918855204723	-0.1359899400695204	-0.1612574540994788	0.09165485409278218	0.09936654860571374	-0.07915906359893375	-0.02824013003771425	-0.02278257672065715	0.2892733100017065	-0.007812326200421715	0.08601287729515031	-0.1006620166823322	0.2782462851411608	0.2782462851411624	0.05523391774555485	-0.01629337453956661	0.09242368350173039	0.01976540094057051	0.1010749968773569	-0.04217722635313227	-0.005791347660996222	-0.228078778816784	0.1608808601316853	-0.0713279917267112	-0.03672598597284479	21.26020135354035	28.40355884778018	-6.120970725480752	-14.19840934072288	-440.4897490432276	-51.00898416078306	-25.99720029019434	-2.496830757182039	-0.9155812077762069	-0.7390093857995523	9.18381903170607	-0.2294966721455515	2.810817491776728	-3.198161912710878	8.80307889255792	8.803078892558293	1.758792875069606	-0.4077015936002151	2.900278878740097	0.6377425818329472	-3.881506154494901e-08	8.115362286919466e-07	-1.340735301891856e-07	1.109417581540575e-07	-3.701041255960105e-07	2.849090080787701e-07	1.094047596471555e-07
0.04	0.0530554207654312	0.103629087230689	0.9043788102771346	0.1344339306747395	-0.3519252098818628	-0.2326125512683588	-0.2172028755636693	0.2126134637961139	0.2126134637961145	-0.1353509942043647	-0.1614434633877248	0.09272327021971484	0.09959539356193715	-0.1042087961014077	-0.03734927312867656	-0.03024288611970478	0.3807168374892668	-0.01018881571765531	0.1133645149288129	-0.1314422000061236	0.3656393122286838	0.3656393122286877	0.07243474511841159	-0.02084872197542183	0.1210867933843271	0.02596462400639566	0.09749814389873783	-0.03726961458010719	-0.005166150533853406	-0.2236039732449195	0.1551897954874714	-0.0730836176330954	-0.03404377409311905	19.3579344905065	29.34900435307699	-6.100255363379019	-12.87496114778736	-439.7231007138187	-48.13231927462521	-25.99689930317001	-2.568499495170327	-0.9085484247267825	-0.7620040093237532	9.202158206741577	-0.2569476929361273	2.619542097827829	-2.900177101977341	8.740806228569435	8.74080622856966	1.678597712143065	-0.5690533455461901	2.850163054126087	0.5961703710531788	-4.618438120748129e-08	8.912928522870742e-07	-1.415122034712831e-07	1.266785810513112e-07	-4.75053907984771e-07	2.986194337377058e-07	1.226766145197908e-07
0.05	0.05189063234419796	0.1032107638608232	0.9040389586066053	0.1386884966628943	-0.352038807762306	-0.2313459603199695	-0.2186649038813139	0.216696523013103	0.2166965230130777	-0.1345437920939652	-0.1616741061830532	0.09407328698110935	0.09988503505847236	-0.1286806340172476	-0.04627705377249215	-0.03774042832478485	0.469812693666495	-0.01251870497441802	0.1398410284991955	-0.1606978820134659	0.4505259931435587	0.4505259931435648	0.08886752445218946	-0.02519599176160835	0.1487431626230474	0.03192744756170381	0.09437562029484228	-0.03575872464144141	-0.004574145982265432	-0.2207372994825656	0.1506411639842589	-0.07197537747693471	-0.03166533339778863	17.98982152014684	29.00130874214636	-5.92382120930304	-12.08130840404364	-439.2981666065104	-48.09854043545869	-25.99494654689407	-2.376279716578268	-0.8791153594598371	-0.7456722357997518	8.70574902335389	-0.2193056640785454	2.644859844232499	-2.898426524300755	8.295593677024252	8.295593677024597	1.605029753572193	-0.3550308604214828	2.697387266612072	0.5907816350131737	-4.925330066145729e-08	8.75651198592663e-07	-1.526612245291229e-07	1.323805003671635e-07	-5.39147399469428e-07	2.968459014947941e-07	1.252085300237238e-07
